<?xml version="1.0" encoding="utf-8"?>
<?xml-stylesheet type="text/xsl" href="rss1.xsl"?>
<rss version="2.0" xmlns:atom="http://www.w3.org/2005/Atom" xmlns:content="http://purl.org/rss/1.0/modules/content/" xmlns:dc="http://purl.org/dc/elements/1.1/" xmlns:media="http://search.yahoo.com/mrss/">
<channel>
 <title>Getty</title>
 <link>http://www.gettyimg.com/</link>
 <atom:link href="http://www.gettyimg.com/" rel="self" type="application/rss+xml" />

 
                <item>
                <title><![CDATA[【HD Live Performances】UHDTV 4K - Jão (Jao) - Live @ The Town 2023 UHDTV H265 2160p DD2.0-ilya2129]]></title>
                <link><![CDATA[https://sharemania.us/threads/j%C3%A3o-jao-live-the-town-2023-uhdtv-h265-2160p-dd2-0-ilya2129.228435/]]></link>
                <description><![CDATA[<article>
<blockquote class="messageText SelectQuoteContainer ugc baseHtml">
<div style="text-align: center"><img src="https://i122.fastpic.org/big/2023/0903/f2/ce9f496df0f384cc9c966a9eba2bd3f2.png" class="bbCodeImage LbImage" alt="[​IMG]" data-url="https://i122.fastpic.org/big/2023/0903/f2/ce9f496df0f384cc9c966a9eba2bd3f2.png" style=""><br>
<br>
<a href="https://postimg.cc/Hj437WH0" target="_blank" class="externalLink" rel="nofollow"><img src="https://i.postimg.cc/Hj437WH0/vlcsnap-2023-09-15-11h06m03s105.png" class="bbCodeImage LbImage" alt="[​IMG]" data-url="https://i.postimg.cc/Hj437WH0/vlcsnap-2023-09-15-11h06m03s105.png"></a> <a href="https://postimg.cc/8FSjWGTW" target="_blank" class="externalLink" rel="nofollow"><img src="https://i.postimg.cc/8FSjWGTW/vlcsnap-2023-09-15-11h06m04s978.png" class="bbCodeImage LbImage" alt="[​IMG]" data-url="https://i.postimg.cc/8FSjWGTW/vlcsnap-2023-09-15-11h06m04s978.png"></a> <a href="https://postimg.cc/H8VxHstG" target="_blank" class="externalLink" rel="nofollow"><img src="https://i.postimg.cc/H8VxHstG/vlcsnap-2023-09-15-11h06m08s830.png" class="bbCodeImage LbImage" alt="[​IMG]" data-url="https://i.postimg.cc/H8VxHstG/vlcsnap-2023-09-15-11h06m08s830.png"></a> <a href="https://postimg.cc/dkW1zTrm" target="_blank" class="externalLink" rel="nofollow"><img src="https://i.postimg.cc/dkW1zTrm/vlcsnap-2023-09-15-11h06m11s014.png" class="bbCodeImage LbImage" alt="[​IMG]" data-url="https://i.postimg.cc/dkW1zTrm/vlcsnap-2023-09-15-11h06m11s014.png"></a> <a href="https://postimg.cc/LhXhjNFy" target="_blank" class="externalLink" rel="nofollow"><img src="https://i.postimg.cc/LhXhjNFy/vlcsnap-2023-09-15-11h06m13s040.png" class="bbCodeImage LbImage" alt="[​IMG]" data-url="https://i.postimg.cc/LhXhjNFy/vlcsnap-2023-09-15-11h06m13s040.png"></a> <a href="https://postimg.cc/21v1VyNr" target="_blank" class="externalLink" rel="nofollow"><img src="https://i.postimg.cc/21v1VyNr/vlcsnap-2023-09-15-11h06m14s771.png" class="bbCodeImage LbImage" alt="[​IMG]" data-url="https://i.postimg.cc/21v1VyNr/vlcsnap-2023-09-15-11h06m14s771.png"></a> <br>
<br>
<i><br>
Main Stage<br>
A rua<br>
Escorpião<br>
Idiota<br>
Alinhamento milenar<br>
Meninos e meninas<br>
Acontece<br>
Julho<br>
Santo<br>
Imaturo<br>
Vou morrer sozinho<br>
<br>
B stage<br>
Maria<br>
Essa eu fiz pro nosso amor<br>
Main Stage<br>
Sinais<br>
Pilantra<br>
Me lambe<br>
</i><br>
​</div><br>
<div class="bbCodeBlock bbCodeCode">
<div class="type">Code:</div>
<pre>General
ID                                       : 17 (0x11)
Complete name                            : D:\Jao - Live @ The Town 2023 UHDTV H265 2160p DD2.0-ilya2129.ts
Format                                   : MPEG-TS
File size                                : 7.26 GiB
Duration                                 : 58 min 18 s
Overall bit rate mode                    : Variable
Overall bit rate                         : 17.8 Mb/s
Frame rate                               : 59.940 FPS

Video
ID                                       : 4368 (0x1110)
Menu ID                                  : 442 (0x1BA)
Format                                   : HEVC
Format/Info                              : High Efficiency Video Coding
Format profile                           : Main 10@L5.1@Main
Codec ID                                 : 36
Duration                                 : 58 min 18 s
Bit rate                                 : 16.8 Mb/s
Maximum bit rate                         : 17.7 Mb/s
Width                                    : 3 840 pixels
Height                                   : 2 160 pixels
Display aspect ratio                     : 16:9
Frame rate                               : 59.940 (60000/1001) FPS
Color space                              : YUV
Chroma subsampling                       : 4:2:0 (Type 0)
Bit depth                                : 10 bits
Bits/(Pixel*Frame)                       : 0.034
Stream size                              : 6.83 GiB (94%)
Color range                              : Limited
Color primaries                          : BT.709
Transfer characteristics                 : BT.709
Matrix coefficients                      : BT.709

Audio
ID                                       : 4369 (0x1111)
Menu ID                                  : 442 (0x1BA)
Format                                   : AC-3
Format/Info                              : Audio Coding 3
Commercial name                          : Dolby Digital
Codec ID                                 : 6
Duration                                 : 58 min 18 s
Bit rate mode                            : Constant
Bit rate                                 : 192 kb/s
Maximum bit rate                         : 203 kb/s
Channel(s)                               : 2 channels
Channel layout                           : L R
Sampling rate                            : 48.0 kHz
Frame rate                               : 31.250 FPS (1536 SPF)
Compression mode                         : Lossy
Delay relative to video                  : 24 ms
Stream size                              : 80.1 MiB (1%)
Language                                 : Portuguese
Service kind                             : Complete Main

</pre>
</div>
<div class="bbCodeBlock bbCodeVfcHH HiddenContent">
<div class="attribution type">Hidden Content:</div>
<blockquote>You must reply before you can see the hidden data contained here.</blockquote>
</div>
<div class="messageTextEndMarker">&nbsp;</div>
</blockquote>
</article>]]></description>
                <author><![CDATA[ilya2129]]></author>
                </item>

                
                <item>
                <title><![CDATA[【HD Live Performances】UHDTV 4K - Bruno Mars - Live @ The Town 2023 (Week 2) UHDTV H265 2160p DD2.0-ilya2129]]></title>
                <link><![CDATA[https://sharemania.us/threads/bruno-mars-live-the-town-2023-week-2-uhdtv-h265-2160p-dd2-0-ilya2129.228436/]]></link>
                <description><![CDATA[<article>
<blockquote class="messageText SelectQuoteContainer ugc baseHtml">
<div style="text-align: center"><img src="https://i122.fastpic.org/big/2023/0903/f2/ce9f496df0f384cc9c966a9eba2bd3f2.png" class="bbCodeImage LbImage" alt="[​IMG]" data-url="https://i122.fastpic.org/big/2023/0903/f2/ce9f496df0f384cc9c966a9eba2bd3f2.png" style=""><br>
<br>
<a href="https://postimg.cc/Xp5jgPHg" target="_blank" class="externalLink" rel="nofollow"><img src="https://i.postimg.cc/Xp5jgPHg/vlcsnap-2023-09-15-11h06m48s909.png" class="bbCodeImage LbImage" alt="[​IMG]" data-url="https://i.postimg.cc/Xp5jgPHg/vlcsnap-2023-09-15-11h06m48s909.png"></a> <a href="https://postimg.cc/fVZNfR0w" target="_blank" class="externalLink" rel="nofollow"><img src="https://i.postimg.cc/fVZNfR0w/vlcsnap-2023-09-15-11h06m51s548.png" class="bbCodeImage LbImage" alt="[​IMG]" data-url="https://i.postimg.cc/fVZNfR0w/vlcsnap-2023-09-15-11h06m51s548.png"></a> <a href="https://postimg.cc/CBdYnrnk" target="_blank" class="externalLink" rel="nofollow"><img src="https://i.postimg.cc/CBdYnrnk/vlcsnap-2023-09-15-11h06m53s633.png" class="bbCodeImage LbImage" alt="[​IMG]" data-url="https://i.postimg.cc/CBdYnrnk/vlcsnap-2023-09-15-11h06m53s633.png"></a> <a href="https://postimg.cc/LnjSP15C" target="_blank" class="externalLink" rel="nofollow"><img src="https://i.postimg.cc/LnjSP15C/vlcsnap-2023-09-15-11h06m56s280.png" class="bbCodeImage LbImage" alt="[​IMG]" data-url="https://i.postimg.cc/LnjSP15C/vlcsnap-2023-09-15-11h06m56s280.png"></a> <a href="https://postimg.cc/67Mt3xqB" target="_blank" class="externalLink" rel="nofollow"><img src="https://i.postimg.cc/67Mt3xqB/vlcsnap-2023-09-15-11h06m58s544.png" class="bbCodeImage LbImage" alt="[​IMG]" data-url="https://i.postimg.cc/67Mt3xqB/vlcsnap-2023-09-15-11h06m58s544.png"></a> <a href="https://postimg.cc/vDJMDzYx" target="_blank" class="externalLink" rel="nofollow"><img src="https://i.postimg.cc/vDJMDzYx/vlcsnap-2023-09-15-11h07m00s850.png" class="bbCodeImage LbImage" alt="[​IMG]" data-url="https://i.postimg.cc/vDJMDzYx/vlcsnap-2023-09-15-11h07m00s850.png"></a> <a href="https://postimg.cc/fktDwFNh" target="_blank" class="externalLink" rel="nofollow"><img src="https://i.postimg.cc/fktDwFNh/vlcsnap-2023-09-15-11h07m02s946.png" class="bbCodeImage LbImage" alt="[​IMG]" data-url="https://i.postimg.cc/fktDwFNh/vlcsnap-2023-09-15-11h07m02s946.png"></a> <br>
<br>
<i><br>
24K Magic<br>
Finesse<br>
Treasure<br>
Liquor Store Blues / Billionaire<br>
Calling All My Lovelies / Wake Up in the Sky<br>
That's What I Like<br>
Please Me<br>
Pure Imagination<br>
Versace on the Floor<br>
It Will Rain<br>
Marry You<br>
Runaway Baby<br>
Fuck You / Young Wild and Free / Grenade / Talking to the Moon / Nothin' on You / Leave the Door Open<br>
When I Was Your Man<br>
Evidências / Still D.R.E<br>
Locked Out of Heaven<br>
Just the Way You Are<br>
<br>
Encore:<br>
Uptown Funk<br>
</i><br>
​</div><br>
<div class="bbCodeBlock bbCodeCode">
<div class="type">Code:</div>
<pre>General
ID                                       : 17 (0x11)
Complete name                            : D:\Bruno Mars - Live @ The Town 2023 (Week 2) UHDTV H265 2160p DD2.0-ilya2129.ts
Format                                   : MPEG-TS
File size                                : 13.1 GiB
Duration                                 : 1 h 45 min
Overall bit rate mode                    : Variable
Overall bit rate                         : 17.8 Mb/s
Frame rate                               : 59.940 FPS

Video
ID                                       : 4368 (0x1110)
Menu ID                                  : 442 (0x1BA)
Format                                   : HEVC
Format/Info                              : High Efficiency Video Coding
Format profile                           : Main 10@L5.1@Main
Codec ID                                 : 36
Duration                                 : 1 h 45 min
Bit rate                                 : 16.8 Mb/s
Maximum bit rate                         : 17.7 Mb/s
Width                                    : 3 840 pixels
Height                                   : 2 160 pixels
Display aspect ratio                     : 16:9
Frame rate                               : 59.940 (60000/1001) FPS
Color space                              : YUV
Chroma subsampling                       : 4:2:0 (Type 0)
Bit depth                                : 10 bits
Bits/(Pixel*Frame)                       : 0.034
Stream size                              : 12.4 GiB (94%)
Color range                              : Limited
Color primaries                          : BT.709
Transfer characteristics                 : BT.709
Matrix coefficients                      : BT.709

Audio
ID                                       : 4369 (0x1111)
Menu ID                                  : 442 (0x1BA)
Format                                   : AC-3
Format/Info                              : Audio Coding 3
Commercial name                          : Dolby Digital
Codec ID                                 : 6
Duration                                 : 1 h 45 min
Bit rate mode                            : Constant
Bit rate                                 : 192 kb/s
Maximum bit rate                         : 203 kb/s
Channel(s)                               : 2 channels
Channel layout                           : L R
Sampling rate                            : 48.0 kHz
Frame rate                               : 31.250 FPS (1536 SPF)
Compression mode                         : Lossy
Delay relative to video                  : 27 ms
Stream size                              : 145 MiB (1%)
Language                                 : Portuguese
Service kind                             : Complete Main
</pre>
</div>
<div class="bbCodeBlock bbCodeVfcHH HiddenContent">
<div class="attribution type">Hidden Content:</div>
<blockquote>You must reply before you can see the hidden data contained here.</blockquote>
</div>
<div class="messageTextEndMarker">&nbsp;</div>
</blockquote>
</article>]]></description>
                <author><![CDATA[ilya2129]]></author>
                </item>

                
                <item>
                <title><![CDATA[【Requests】[REQ AUD] - Olivia Rodrigo - Get Him Back! [24bit/48kHz]]]></title>
                <link><![CDATA[https://sharemania.us/threads/olivia-rodrigo-get-him-back-24bit-48khz.228438/]]></link>
                <description><![CDATA[<article>
<blockquote class="messageText SelectQuoteContainer ugc baseHtml">
thanks
<div class="messageTextEndMarker">&nbsp;</div>
</blockquote>
</article>]]></description>
                <author><![CDATA[Marco92010]]></author>
                </item>

                
                <item>
                <title><![CDATA[【Singles (lossless)】FLAC - Jihyo (TWICE) - Killin' Me Good (English Ver.) [FLAC 24bits/48kHz]]]></title>
                <link><![CDATA[https://sharemania.us/threads/jihyo-twice-killin-me-good-english-ver-flac-24bits-48khz.228437/]]></link>
                <description><![CDATA[<article>
<blockquote class="messageText SelectQuoteContainer ugc baseHtml">
Hi everyone, can you upload Olivia Rodrigo's third single - Get Him Back! in FLAC 24 bit if you can. Thanks always for your work
<div class="messageTextEndMarker">&nbsp;</div>
</blockquote>
</article>]]></description>
                <author><![CDATA[Eric Lyn]]></author>
                </item>

                </channel></rss>